PathFileType	4	(X/Y/Z)	Patient5_TMGait_0pt45_1_right_07.trc.trc
DataRate	CameraRate	NumFrames	NumMarkers	Units	OrigDataRate	OrigDataStartFrame	OrigNumFrames
59.071729957806	59.071729957806	7	32	mm	59.071729957806	106	       141
Frame#	Time	R.ASIS			L.ASIS			Chest			R.Shoulder			Neck			L.Shoulder			L.Elbow			L.Wrist			R.Elbow			R.Wrist			L.Thigh.Superior			L.Thigh.Lateral			L.Thigh.Inferior			L.Patella			L.Shank.Superior			L.Shank.Lateral			L.Shank.Inferior			L.Heel			L.Midfoot.Lateral			L.Midfoot.Superior			L.Toe			R.Thigh.Superior			R.Thigh.Lateral			R.Thigh.Inferior			R.Patella			R.Shank.Superior			R.Shank.Lateral			R.Shank.Inferior			R.Heel			R.Midfoot.Lateral			R.Midfoot.Superior			R.Toe			
		X1	Y1	Z1	X2	Y2	Z2	X3	Y3	Z3	X4	Y4	Z4	X5	Y5	Z5	X6	Y6	Z6	X7	Y7	Z7	X8	Y8	Z8	X9	Y9	Z9	X10	Y10	Z10	X11	Y11	Z11	X12	Y12	Z12	X13	Y13	Z13	X14	Y14	Z14	X15	Y15	Z15	X16	Y16	Z16	X17	Y17	Z17	X18	Y18	Z18	X19	Y19	Z19	X20	Y20	Z20	X21	Y21	Z21	X22	Y22	Z22	X23	Y23	Z23	X24	Y24	Z24	X25	Y25	Z25	X26	Y26	Z26	X27	Y27	Z27	X28	Y28	Z28	X29	Y29	Z29	X30	Y30	Z30	X31	Y31	Z31	X32	Y32	Z32	

106	12.947500000000	1028.219834545128	1024.495067303420	524.728030762392	1026.386185121333	964.404080805322	275.256126338893	1081.482528449836	1448.972334695296	388.970119384667	956.959416918054	1518.321661128723	535.613593148031	965.394575979822	1572.018725568856	350.425670506814	1055.768946357036	1510.102959940814	186.462640662186	1044.706418613564	1180.305276131045	65.701184292136	1200.737010461156	940.369561670698	100.483928144526	846.087764214716	1204.592407277689	669.948555948870	1071.144244758867	1022.698641397275	644.227634973940	1030.742169903189	739.305737715259	285.494620299239	947.587740787843	674.627326701756	251.672629313504	1014.296038243186	611.186470529918	312.819999711969	999.051483101748	495.252349880673	323.173561328810	943.444700318104	398.400408288616	351.558766249902	866.649534397544	334.062299642805	278.630826398640	898.894200390872	279.867952390194	367.598120992490	743.835260078130	53.513924508237	379.275571946755	833.161262647851	28.142133595611	321.316551847788	930.300532314720	88.818232508593	365.024840949308	1036.172971275728	44.657588977795	374.354339477057	1105.950316664478	828.230019383217	565.256515936541	1060.087955707705	740.979837213986	637.902070506862	1154.856086497783	709.555905208187	570.533557193848	1194.006273106313	619.594946433149	618.895871713302	1160.233471315353	502.131375204858	593.098945606789	1089.191963117282	436.572788278989	677.235253831140	1149.143810882461	362.735015735309	603.059812513537	1039.784668407104	132.694001880716	588.703288095666	1119.434407131600	102.735757954560	661.054270463206	1221.798768789648	174.863964697060	645.972875982062	1327.074239873338	136.479080377142	644.305741309472	
107	12.964428571429	1027.423922374577	1023.209064592495	523.598085638558	1024.068623085482	963.814052701742	275.298985144518	1078.215601003988	1448.498041536429	388.934475489551	955.048216223335	1517.055115941502	537.134229149962	961.294786403435	1571.113232763907	351.894277969313	1049.696048218580	1509.636317077958	186.644592167166	1037.331561829622	1179.525796460712	66.361548434492	1193.350562734302	939.468138900313	100.370134876408	845.576540362818	1203.474760070561	672.847855118896	1069.724382760418	1020.722757502810	645.435623969913	1027.667544872604	738.280487733408	285.936373944694	943.831996805883	673.917746677076	252.361003238897	1010.134001856488	610.241097211610	313.368979856602	993.788993416971	494.279367991148	323.698481040818	937.676703309377	397.739758445867	352.048998722848	860.416463612612	333.924970875241	279.115364777804	892.434285321856	279.501006590829	368.130593108386	736.195459130931	53.478754801409	379.591121556852	825.475019174319	28.243382027464	321.503858978321	922.545323447549	88.736681878736	365.217279326327	1028.477016240004	44.659084160886	374.346038202801	1106.768369264594	826.681343809804	564.460165846364	1062.224933881543	739.110388134772	636.946578820433	1156.180553550042	708.008609074760	568.281875840232	1195.964250033564	617.916884886720	615.853615714263	1161.805693390796	500.362027540872	590.367468286860	1092.033912555441	434.725304491368	675.436880856735	1150.802656243356	360.991242508207	600.258603183278	1041.025880680689	131.007910361121	587.173213113470	1121.711368535617	101.017757370631	658.350803837589	1223.864519106526	173.161272240873	641.839338180175	1329.123535267405	134.745495797669	638.666193744659	
108	12.981357142857	1026.797372909996	1021.768629056413	522.693627254983	1022.006336638944	963.298003064835	275.475911919316	1075.091764000231	1448.025266561808	389.077785408606	953.334306405770	1515.775934017805	538.842418843453	957.308506129680	1570.199928290730	353.551356562294	1043.658119077748	1509.156505275836	187.003808066768	1029.740169197634	1178.807801310255	67.061357146741	1185.603377712949	938.503946368250	100.024580706950	845.485214413830	1202.267459310384	675.886129346246	1068.555534237251	1018.509221717158	646.454402529411	1024.784097058295	737.349580288658	286.332505553664	940.320313517403	673.290780135574	252.948694445004	1006.193508076090	609.357486724886	313.772228209524	988.684202987419	493.330685306087	324.059736627563	932.054539673766	397.122836642754	352.353730062132	854.238357294014	333.886276035764	279.464072565651	886.065850352543	279.185466566645	368.472731618019	728.575486864866	53.552217496000	379.817749075673	817.810010402141	28.334320947395	321.660819503899	914.834592594311	88.670236936744	365.322878641108	1020.771703305414	44.665682268063	374.330108494958	1107.128521359350	824.571112997327	563.777583447242	1063.416439606593	736.644288923829	635.875483784275	1156.625518781598	705.707244992059	566.113097719522	1196.716874371877	615.438402828975	612.907332316848	1162.401897610870	497.954631780974	587.592195365399	1093.779568203330	432.077499770781	673.344196472092	1151.715364761863	358.589961452026	597.360000548270	1042.080850527519	128.460018990823	585.127603427258	1123.585451370459	98.586206942700	655.400224249893	1225.421736491203	170.911534566381	637.808727894721	1330.713735724580	132.653982779975	633.487262291185	
109	12.998285714286	1026.337716465941	1020.190290644704	522.069111689393	1020.226257824759	962.905886857624	275.764467747189	1072.138019421920	1447.568672428285	389.432956732759	951.817703493123	1514.514672300528	540.744006542875	953.472122610933	1569.293754901150	355.404749410258	1037.744121569174	1508.671752875649	187.573227441091	1021.998805693862	1178.180517031688	67.815864983027	1177.505069670939	937.470493702119	99.465310465413	845.767160235114	1200.997061572059	679.016344162198	1067.699386103922	1016.225531270824	647.266495994008	1022.101480401114	736.535354136572	286.659534175020	937.044825619073	672.773657383922	253.416421692354	1002.470216892641	608.540735075604	313.998753495780	983.743811285875	492.433381122758	324.223670442106	926.578050701524	396.576080529257	352.456240179424	848.107809158990	333.975834027745	279.673678638283	879.798874335258	278.944425264574	368.602176543186	720.979329521162	53.760454797661	379.942416566762	810.169561667132	28.422490789455	321.781459433363	907.183006233388	88.631153592156	365.328805039848	1013.058147802847	44.675973712469	374.304889036250	1107.071982587288	821.950393517700	563.130788292661	1063.698206862013	733.643036326487	634.727310309038	1156.210492339101	702.726434305052	564.049775167276	1196.315198928358	612.250363987117	610.097236479294	1162.068603103921	494.974861896051	584.795716065733	1094.476817610207	428.692521640622	670.990239218650	1151.928298446288	355.593459202909	594.364606214877	1042.961640228518	125.125966449910	582.545406514112	1125.105694051742	95.490624316795	652.156875616983	1226.526666859827	168.169389134235	633.822141031711	1331.916206962261	130.267320751962	628.662773503851	
110	13.015214285714	1026.021166578666	1018.469905120755	521.738030627878	1018.742035847600	962.667970329022	276.148491948351	1069.381415031644	1447.139105304452	390.024004245576	950.501126617771	1513.295219076115	542.841504234486	949.821030915752	1568.405946706433	357.460661413156	1032.036127800335	1508.188632598695	188.378971834204	1014.172860941376	1177.668412444004	68.638444632802	1169.070836054029	936.365035011885	98.720056806237	846.371716153655	1199.687963865486	682.198125682727	1067.203485706017	1014.023275079373	647.870977615089	1019.610781394230	735.848842411114	286.906038383241	933.969686204197	672.384575052393	253.763184767632	998.936401485611	607.795743669866	314.043375653978	978.959357464700	491.607948877016	324.176871829961	921.229634906142	396.119901224288	352.358134749785	842.006835717006	334.215975087712	279.755670669250	873.632621889193	278.796088896724	368.514335262917	713.408538146001	54.119722469041	379.958416282501	802.554698555041	28.516906204547	321.858939880757	899.598293845988	88.627544686194	365.229199165837	1005.337383931037	44.690457312720	374.268465023192	1106.642522374731	818.880171782036	562.465270738682	1063.140241366036	730.183694542778	633.544211341214	1154.982697147613	699.162799312097	562.102222891725	1194.846181443009	608.463091291602	607.438641421522	1160.874179688134	491.504553267890	581.990182315696	1094.190855970780	424.661958440115	668.403458948473	1151.488036825561	352.082698148515	591.269448394527	1043.644035304589	121.117806390655	579.416427392646	1126.277846989096	91.799428189608	648.577671555484	1227.203696505202	164.994188608852	629.826327618886	1332.758322596152	127.632728804556	624.091369898323	
111	13.032142857143	1025.799786140517	1016.580449483877	521.664540473088	1017.539569249322	962.579867622885	276.625225143644	1066.846508390536	1446.741805494532	390.864609486027	949.386037739994	1512.133103854050	545.131126275622	946.387658006237	1567.542583167656	359.721253834153	1026.602577934138	1507.711885748858	189.438282881759	1006.325426680859	1177.289640207806	69.539993543617	1160.322105133480	935.188344083106	97.826105537910	847.251818816938	1198.357432017787	685.400098933164	1067.098363217097	1012.018963808050	648.284988217235	1017.282255150253	735.287439730134	287.072974277439	931.038367286531	672.135437215150	254.000268382449	995.546036729258	607.128088608475	313.924920553524	974.305019745344	490.868149900913	323.925892077346	915.977209857303	395.767133797656	352.076757653678	835.909320593252	334.619848855382	279.731999526888	867.554741502553	278.753624863300	368.222472432452	705.862889286480	54.636034850253	379.864989955645	794.964352531448	28.626444087424	321.886602576638	892.081269351408	88.662866295426	365.023822879609	997.610964551783	44.709660881728	374.219057411493	1105.888256268856	815.427116152933	561.763494377401	1061.838583398434	726.347779960666	632.364991122898	1153.019370791250	695.124376599985	560.272055202460	1192.427310789071	604.193966563575	604.926971677897	1158.906007723925	487.632729079093	579.178893423823	1092.997221306231	420.094370275389	665.604547943438	1150.438118475387	348.147790284555	588.069669956287	1044.071606838393	116.571953237733	575.736269855837	1127.063036013352	87.590426734878	644.624056681201	1227.443554875474	161.440242884137	625.783024582936	1333.221637569297	124.772389100396	619.693843182731	
112	13.049071428571	1025.607227910539	1014.479155474796	521.768577247159	1016.568683668089	962.596096928812	277.209056753107	1064.553667372543	1446.375146097148	391.958172017935	948.469951715591	1511.033720483830	547.601992722911	943.200120413076	1566.703097804287	362.183652643554	1021.494644669798	1507.243823265178	190.758662837447	998.515387925412	1177.054565815092	70.529000360850	1151.286931250723	933.944008407855	96.828783879934	848.369304524308	1197.011959647343	688.601455360575	1067.396985030072	1010.281824845290	648.543302295903	1015.069638422777	734.834855478092	287.173199735622	928.185493189817	672.032474267051	254.146547752682	992.244981136024	606.541819434737	313.680256345865	969.739333631174	490.221787546817	323.495015279962	910.779795843624	395.522724713095	351.641704769622	829.785991848697	335.190380335555	279.630293613390	861.542691157500	278.826093000101	367.758452021870	698.340894748747	55.304989630748	379.667080923889	787.395465597638	28.758279699158	321.859476732915	884.626744065804	88.735152535636	364.717853611753	989.880145093880	44.733297832264	374.155980012993	1104.865196318737	811.656812984416	561.049088759358	1059.906007414962	722.211359361787	631.220191433791	1150.426572619840	690.718445329491	558.557790912541	1189.197920197626	599.553986050926	602.546466530850	1156.264364533562	483.446190164175	576.358957215867	1090.974675678158	415.103177681840	662.605777970672	1148.815483881647	343.877661870586	584.759649110577	1044.159012058590	111.635918526880	571.503939693344	1127.382351126631	82.941374259042	640.262480345567	1227.204809768408	157.546707070417	621.669326811121	1333.245938891392	121.675790207036	615.412765868600	
